<svg width="14" height="10" viewBox="0 0 14 10" fill="none" xmlns="http://www.w3.org/2000/svg">
<path d="M0.0568182 9V0.272727H5.32386V1.21023H1.11364V4.15909H5.05114V5.09659H1.11364V8.0625H5.39205V9H0.0568182ZM12.0014 2.45455C11.9503 2.02273 11.7429 1.6875 11.3793 1.44886C11.0156 1.21023 10.5696 1.09091 10.0412 1.09091C9.65483 1.09091 9.31676 1.15341 9.02699 1.27841C8.74006 1.40341 8.51563 1.57528 8.35369 1.79403C8.1946 2.01278 8.11506 2.26136 8.11506 2.53977C8.11506 2.77273 8.17045 2.97301 8.28125 3.14062C8.39489 3.3054 8.53977 3.44318 8.71591 3.55398C8.89205 3.66193 9.0767 3.75142 9.26989 3.82244C9.46307 3.89062 9.64062 3.94602 9.80256 3.98864L10.6889 4.22727C10.9162 4.28693 11.169 4.36932 11.4474 4.47443C11.7287 4.57955 11.9972 4.72301 12.2528 4.90483C12.5114 5.08381 12.7244 5.31392 12.892 5.59517C13.0597 5.87642 13.1435 6.22159 13.1435 6.63068C13.1435 7.10227 13.0199 7.52841 12.7727 7.90909C12.5284 8.28977 12.1705 8.59233 11.6989 8.81676C11.2301 9.04119 10.6605 9.15341 9.99006 9.15341C9.36506 9.15341 8.82386 9.05256 8.36648 8.85085C7.91193 8.64915 7.55398 8.3679 7.29261 8.0071C7.03409 7.64631 6.88778 7.22727 6.85369 6.75H7.9446C7.97301 7.07955 8.08381 7.35227 8.27699 7.56818C8.47301 7.78125 8.72017 7.94034 9.01847 8.04545C9.3196 8.14773 9.64347 8.19886 9.99006 8.19886C10.3935 8.19886 10.7557 8.13352 11.0767 8.00284C11.3977 7.86932 11.652 7.68466 11.8395 7.44886C12.027 7.21023 12.1207 6.93182 12.1207 6.61364C12.1207 6.32386 12.0398 6.08807 11.8778 5.90625C11.7159 5.72443 11.5028 5.5767 11.2386 5.46307C10.9744 5.34943 10.6889 5.25 10.3821 5.16477L9.30824 4.85795C8.62642 4.66193 8.08665 4.3821 7.68892 4.01847C7.29119 3.65483 7.09233 3.17898 7.09233 2.59091C7.09233 2.10227 7.22443 1.67614 7.48864 1.3125C7.75568 0.946023 8.11364 0.661932 8.5625 0.460227C9.0142 0.255682 9.51847 0.153409 10.0753 0.153409C10.6378 0.153409 11.1378 0.254261 11.5753 0.455966C12.0128 0.654829 12.3594 0.927556 12.6151 1.27415C12.8736 1.62074 13.0099 2.0142 13.0241 2.45455H12.0014Z" fill="black" fill-opacity="0.17"/>
</svg>
