<svg width="420" height="420" viewBox="0 0 420 420" fill="none" xmlns="http://www.w3.org/2000/svg">
<circle cx="210" cy="210" r="210" fill="#F6F6F6"/>
<g clip-path="url(#clip0_38_551)">
<path d="M303.067 323.771C320.174 309.016 335 281.447 335 257.761C335 217.766 311.43 189.032 282.159 168.064L281.398 167.287C272.275 159.133 261.25 152.144 251.366 145.155C233.119 131.952 214.492 118.75 195.864 105.936C190.922 102.441 189.021 98.5585 189.021 92.3458C189.021 83.4149 192.823 79.9202 198.525 77.9788C204.988 76.0372 213.731 76.4255 220.574 76.4255L322.835 143.601V64H205.368C176.857 64 147.965 66.7181 123.255 85.3564C108.049 97.0053 98.1649 112.926 98.1649 133.117C98.1649 158.745 113.751 175.442 131.998 188.644L256.308 278.341C263.531 283.388 266.953 292.319 266.953 302.027C266.953 328.819 235.02 343.575 209.17 343.575C181.798 343.575 154.047 335.42 131.238 319.888C130.858 319.5 130.858 318.723 130.858 317.947C130.858 316.394 132.759 314.064 136.18 314.064C139.221 314.064 142.263 314.841 145.684 314.841C171.915 314.841 189.021 293.484 189.021 267.856C189.021 238.734 162.41 220.872 137.32 220.872C112.611 220.872 86 238.734 86 267.856C86 295.037 104.627 316.394 124.395 329.984C148.345 346.681 178.377 356 207.269 356C239.582 356 277.977 345.516 303.067 323.771Z" fill="#1D1D1D"/>
</g>
<defs>
<clipPath id="clip0_38_551">
<rect width="249" height="292" fill="white" transform="translate(86 64)"/>
</clipPath>
</defs>
</svg>
